<svg width="244" height="36" viewBox="0 0 244 36" fill="none" xmlns="http://www.w3.org/2000/svg">
<path d="M0.024 15.672C0.024 13.4533 0.482667 11.48 1.4 9.752C2.33867 8.00267 3.66133 6.648 5.368 5.688C7.07467 4.70667 9.03733 4.216 11.256 4.216C14.072 4.216 16.44 4.97333 18.36 6.488C20.28 7.98133 21.5173 10.0187 22.072 12.6H15.32C14.9147 11.7467 14.3493 11.096 13.624 10.648C12.92 10.2 12.0987 9.976 11.16 9.976C9.70933 9.976 8.54667 10.4987 7.672 11.544C6.81867 12.568 6.392 13.944 6.392 15.672C6.392 17.4213 6.81867 18.8187 7.672 19.864C8.54667 20.888 9.70933 21.4 11.16 21.4C12.0987 21.4 12.92 21.176 13.624 20.728C14.3493 20.28 14.9147 19.6293 15.32 18.776H22.072C21.5173 21.3573 20.28 23.4053 18.36 24.92C16.44 26.4133 14.072 27.16 11.256 27.16C9.03733 27.16 7.07467 26.68 5.368 25.72C3.66133 24.7387 2.33867 23.384 1.4 21.656C0.482667 19.9067 0.024 17.912 0.024 15.672ZM43.41 9.048V27H37.106V24.44C36.5727 25.2507 35.8367 25.912 34.898 26.424C33.9593 26.9147 32.882 27.16 31.666 27.16C29.5753 27.16 27.922 26.4773 26.706 25.112C25.5113 23.7253 24.914 21.848 24.914 19.48V9.048H31.154V18.68C31.154 19.704 31.4207 20.5147 31.954 21.112C32.5087 21.688 33.234 21.976 34.13 21.976C35.0473 21.976 35.7727 21.688 36.306 21.112C36.8393 20.5147 37.106 19.704 37.106 18.68V9.048H43.41ZM53.2515 12.216C53.9555 11.192 54.8088 10.3813 55.8115 9.784C56.8142 9.18667 57.8915 8.888 59.0435 8.888V15.576H57.2835C55.9182 15.576 54.9048 15.8427 54.2435 16.376C53.5822 16.9093 53.2515 17.8373 53.2515 19.16V27H46.9795V9.048H53.2515V12.216ZM73.1 8.888C75.148 8.888 76.7693 9.58133 77.964 10.968C79.18 12.3333 79.788 14.1893 79.788 16.536V27H73.516V17.368C73.516 16.344 73.2493 15.544 72.716 14.968C72.1827 14.3707 71.468 14.072 70.572 14.072C69.6333 14.072 68.8973 14.3707 68.364 14.968C67.8307 15.544 67.564 16.344 67.564 17.368V27H61.292V3.32H67.564V11.608C68.1187 10.7973 68.8653 10.1467 69.804 9.656C70.764 9.144 71.8627 8.888 73.1 8.888ZM82.2055 18.008C82.2055 16.152 82.5362 14.5307 83.1975 13.144C83.8802 11.7573 84.7975 10.6907 85.9495 9.944C87.1228 9.19733 88.4242 8.824 89.8535 8.824C91.0908 8.824 92.1575 9.06933 93.0535 9.56C93.9495 10.0507 94.6428 10.712 95.1335 11.544V9.048H101.406V27H95.1335V24.504C94.6428 25.336 93.9388 25.9973 93.0215 26.488C92.1255 26.9787 91.0695 27.224 89.8535 27.224C88.4242 27.224 87.1228 26.8507 85.9495 26.104C84.7975 25.3573 83.8802 24.2907 83.1975 22.904C82.5362 21.496 82.2055 19.864 82.2055 18.008ZM95.1335 18.008C95.1335 16.856 94.8135 15.9493 94.1735 15.288C93.5548 14.6267 92.7868 14.296 91.8695 14.296C90.9308 14.296 90.1522 14.6267 89.5335 15.288C88.9148 15.928 88.6055 16.8347 88.6055 18.008C88.6055 19.16 88.9148 20.0773 89.5335 20.76C90.1522 21.4213 90.9308 21.752 91.8695 21.752C92.7868 21.752 93.5548 21.4213 94.1735 20.76C94.8135 20.0987 95.1335 19.1813 95.1335 18.008ZM115.572 21.656V27H112.852C108.265 27 105.972 24.728 105.972 20.184V14.264H103.764V9.048H105.972V4.696H112.276V9.048H115.54V14.264H112.276V20.28C112.276 20.7707 112.382 21.1227 112.595 21.336C112.83 21.5493 113.214 21.656 113.748 21.656H115.572ZM121.616 7.384C120.507 7.384 119.611 7.08533 118.928 6.488C118.267 5.86933 117.936 5.10133 117.936 4.184C117.936 3.24533 118.267 2.46667 118.928 1.848C119.611 1.22933 120.507 0.919998 121.616 0.919998C122.704 0.919998 123.579 1.22933 124.24 1.848C124.923 2.46667 125.264 3.24533 125.264 4.184C125.264 5.10133 124.923 5.86933 124.24 6.488C123.579 7.08533 122.704 7.384 121.616 7.384ZM124.72 9.048V27H118.448V9.048H124.72ZM140.036 8.888C142.105 8.888 143.748 9.58133 144.964 10.968C146.18 12.3333 146.788 14.1893 146.788 16.536V27H140.516V17.368C140.516 16.344 140.249 15.544 139.716 14.968C139.183 14.3707 138.468 14.072 137.572 14.072C136.633 14.072 135.897 14.3707 135.364 14.968C134.831 15.544 134.564 16.344 134.564 17.368V27H128.292V9.048H134.564V11.608C135.119 10.7973 135.865 10.1467 136.804 9.656C137.743 9.144 138.82 8.888 140.036 8.888ZM164.502 23.32H156.502L155.286 27H148.694L156.918 4.44H164.15L172.342 27H165.718L164.502 23.32ZM162.934 18.52L160.502 11.224L158.102 18.52H162.934ZM177.522 7.384C176.412 7.384 175.516 7.08533 174.834 6.488C174.172 5.86933 173.842 5.10133 173.842 4.184C173.842 3.24533 174.172 2.46667 174.834 1.848C175.516 1.22933 176.412 0.919998 177.522 0.919998C178.61 0.919998 179.484 1.22933 180.146 1.848C180.828 2.46667 181.17 3.24533 181.17 4.184C181.17 5.10133 180.828 5.86933 180.146 6.488C179.484 7.08533 178.61 7.384 177.522 7.384ZM180.658 28.76C180.658 33.304 178.375 35.576 173.81 35.576H171.538V30.232H172.882C173.415 30.232 173.799 30.1253 174.034 29.912C174.268 29.6987 174.386 29.3467 174.386 28.856V9.048H180.658V28.76ZM183.174 18.008C183.174 16.152 183.505 14.5307 184.166 13.144C184.849 11.7573 185.766 10.6907 186.918 9.944C188.092 9.19733 189.393 8.824 190.822 8.824C192.06 8.824 193.126 9.06933 194.022 9.56C194.918 10.0507 195.612 10.712 196.102 11.544V9.048H202.374V27H196.102V24.504C195.612 25.336 194.908 25.9973 193.99 26.488C193.094 26.9787 192.038 27.224 190.822 27.224C189.393 27.224 188.092 26.8507 186.918 26.104C185.766 25.3573 184.849 24.2907 184.166 22.904C183.505 21.496 183.174 19.864 183.174 18.008ZM196.102 18.008C196.102 16.856 195.782 15.9493 195.142 15.288C194.524 14.6267 193.756 14.296 192.838 14.296C191.9 14.296 191.121 14.6267 190.502 15.288C189.884 15.928 189.574 16.8347 189.574 18.008C189.574 19.16 189.884 20.0773 190.502 20.76C191.121 21.4213 191.9 21.752 192.838 21.752C193.756 21.752 194.524 21.4213 195.142 20.76C195.782 20.0987 196.102 19.1813 196.102 18.008ZM208.988 27.256C207.879 27.256 206.983 26.9573 206.3 26.36C205.639 25.7413 205.308 24.9627 205.308 24.024C205.308 23.0853 205.639 22.3067 206.3 21.688C206.983 21.0693 207.879 20.76 208.988 20.76C210.076 20.76 210.951 21.0693 211.612 21.688C212.295 22.3067 212.636 23.0853 212.636 24.024C212.636 24.9413 212.295 25.7093 211.612 26.328C210.951 26.9467 210.076 27.256 208.988 27.256ZM218.741 7.384C217.632 7.384 216.736 7.08533 216.053 6.488C215.392 5.86933 215.061 5.10133 215.061 4.184C215.061 3.24533 215.392 2.46667 216.053 1.848C216.736 1.22933 217.632 0.919998 218.741 0.919998C219.829 0.919998 220.704 1.22933 221.365 1.848C222.048 2.46667 222.389 3.24533 222.389 4.184C222.389 5.10133 222.048 5.86933 221.365 6.488C220.704 7.08533 219.829 7.384 218.741 7.384ZM221.845 9.048V27H215.573V9.048H221.845ZM224.393 18.008C224.393 16.152 224.724 14.5307 225.385 13.144C226.068 11.7573 226.996 10.6907 228.169 9.944C229.342 9.19733 230.644 8.824 232.073 8.824C233.225 8.824 234.249 9.06933 235.145 9.56C236.062 10.0293 236.777 10.68 237.289 11.512V3.32H243.593V27H237.289V24.504C236.798 25.336 236.105 25.9973 235.209 26.488C234.313 26.9787 233.257 27.224 232.041 27.224C230.612 27.224 229.31 26.8507 228.137 26.104C226.985 25.3573 226.068 24.2907 225.385 22.904C224.724 21.496 224.393 19.864 224.393 18.008ZM237.321 18.008C237.321 16.856 237.001 15.9493 236.361 15.288C235.742 14.6267 234.974 14.296 234.057 14.296C233.118 14.296 232.34 14.6267 231.721 15.288C231.102 15.928 230.793 16.8347 230.793 18.008C230.793 19.16 231.102 20.0773 231.721 20.76C232.34 21.4213 233.118 21.752 234.057 21.752C234.974 21.752 235.742 21.4213 236.361 20.76C237.001 20.0987 237.321 19.1813 237.321 18.008Z" fill="black"/>
</svg>
